<mxfile host="app.diagrams.net" agent="Mozilla/5.0 (Macintosh; Intel Mac OS X 10_15_7) AppleWebKit/537.36 (KHTML, like Gecko) Chrome/129.0.0.0 Safari/537.36" version="24.8.2">
  <diagram name="第 1 页" id="eRAYg7L_3T3pv5g5wy1d">
    <mxGraphModel dx="1026" dy="565" grid="1" gridSize="10" guides="1" tooltips="1" connect="1" arrows="1" fold="1" page="1" pageScale="1" pageWidth="3300" pageHeight="4681" math="0" shadow="0">
      <root>
        <mxCell id="0" />
        <mxCell id="1" parent="0" />
        <mxCell id="4jVG0ttsqznSV5I52BtW-102" value="MDM 主档数据中心" style="rounded=0;whiteSpace=wrap;html=1;fillColor=#dae8fc;strokeColor=#6c8ebf;" parent="1" vertex="1">
          <mxGeometry x="320" y="510" width="1240" height="70" as="geometry" />
        </mxCell>
        <mxCell id="4jVG0ttsqznSV5I52BtW-88" value="" style="rounded=0;whiteSpace=wrap;html=1;fillColor=#dae8fc;strokeColor=#6c8ebf;" parent="1" vertex="1">
          <mxGeometry x="320" y="50" width="1240" height="70" as="geometry" />
        </mxCell>
        <mxCell id="4jVG0ttsqznSV5I52BtW-82" value="业务场景" style="text;html=1;align=center;verticalAlign=middle;whiteSpace=wrap;rounded=0;" parent="1" vertex="1">
          <mxGeometry x="240" y="70" width="60" height="30" as="geometry" />
        </mxCell>
        <mxCell id="4jVG0ttsqznSV5I52BtW-83" value="私域 MOD" style="rounded=0;whiteSpace=wrap;html=1;fillColor=#d5e8d4;strokeColor=#82b366;" parent="1" vertex="1">
          <mxGeometry x="400" y="64.38" width="90" height="40" as="geometry" />
        </mxCell>
        <mxCell id="4jVG0ttsqznSV5I52BtW-84" value="私域 MOP" style="rounded=0;whiteSpace=wrap;html=1;fillColor=#d5e8d4;strokeColor=#82b366;" parent="1" vertex="1">
          <mxGeometry x="524" y="64.38" width="90" height="40" as="geometry" />
        </mxCell>
        <mxCell id="4jVG0ttsqznSV5I52BtW-85" value="公域-MOD" style="rounded=0;whiteSpace=wrap;html=1;fillColor=#d5e8d4;strokeColor=#82b366;" parent="1" vertex="1">
          <mxGeometry x="647" y="64.38" width="90" height="40" as="geometry" />
        </mxCell>
        <mxCell id="4jVG0ttsqznSV5I52BtW-86" value="公域-MOD" style="rounded=0;whiteSpace=wrap;html=1;fillColor=#d5e8d4;strokeColor=#82b366;" parent="1" vertex="1">
          <mxGeometry x="770" y="64.38" width="90" height="40" as="geometry" />
        </mxCell>
        <mxCell id="4jVG0ttsqznSV5I52BtW-87" value="咖啡生活馆" style="rounded=0;whiteSpace=wrap;html=1;fillColor=#d5e8d4;strokeColor=#82b366;" parent="1" vertex="1">
          <mxGeometry x="1017" y="64.38" width="90" height="40" as="geometry" />
        </mxCell>
        <mxCell id="4jVG0ttsqznSV5I52BtW-95" value="主档数据" style="text;html=1;align=center;verticalAlign=middle;whiteSpace=wrap;rounded=0;" parent="1" vertex="1">
          <mxGeometry x="240" y="530" width="70" height="30" as="geometry" />
        </mxCell>
        <mxCell id="dU5oYRAke7bi80Ur_Mct-1" style="edgeStyle=orthogonalEdgeStyle;rounded=0;orthogonalLoop=1;jettySize=auto;html=1;exitX=0.5;exitY=1;exitDx=0;exitDy=0;" parent="1" source="4jVG0ttsqznSV5I52BtW-85" target="4jVG0ttsqznSV5I52BtW-85" edge="1">
          <mxGeometry relative="1" as="geometry" />
        </mxCell>
        <mxCell id="dU5oYRAke7bi80Ur_Mct-2" value="POS 点单" style="rounded=0;whiteSpace=wrap;html=1;fillColor=#C9C9C9;strokeColor=#330000;fontColor=#330000;" parent="1" vertex="1">
          <mxGeometry x="894" y="64.38" width="90" height="40" as="geometry" />
        </mxCell>
        <mxCell id="dU5oYRAke7bi80Ur_Mct-3" value="用星说" style="rounded=0;whiteSpace=wrap;html=1;fillColor=#C9C9C9;strokeColor=#330000;fontColor=#330000;" parent="1" vertex="1">
          <mxGeometry x="1140" y="64.38" width="90" height="40" as="geometry" />
        </mxCell>
        <mxCell id="dU5oYRAke7bi80Ur_Mct-4" value="神奇的豆子" style="rounded=0;whiteSpace=wrap;html=1;fillColor=#d5e8d4;strokeColor=#82b366;" parent="1" vertex="1">
          <mxGeometry x="1264" y="64.38" width="90" height="40" as="geometry" />
        </mxCell>
        <mxCell id="dU5oYRAke7bi80Ur_Mct-5" value="卡券售卖" style="rounded=0;whiteSpace=wrap;html=1;fillColor=#C9C9C9;strokeColor=#330000;fontColor=#330000;" parent="1" vertex="1">
          <mxGeometry x="1387" y="64.38" width="90" height="40" as="geometry" />
        </mxCell>
        <mxCell id="dU5oYRAke7bi80Ur_Mct-6" value="" style="rounded=0;whiteSpace=wrap;html=1;fillColor=#dae8fc;strokeColor=#6c8ebf;" parent="1" vertex="1">
          <mxGeometry x="320" y="150" width="1240" height="330" as="geometry" />
        </mxCell>
        <mxCell id="dU5oYRAke7bi80Ur_Mct-8" value="业务数据" style="text;html=1;align=center;verticalAlign=middle;whiteSpace=wrap;rounded=0;" parent="1" vertex="1">
          <mxGeometry x="230" y="297.5" width="80" height="35" as="geometry" />
        </mxCell>
        <mxCell id="dU5oYRAke7bi80Ur_Mct-43" value="" style="rounded=0;whiteSpace=wrap;html=1;fillColor=#d5e8d4;strokeColor=#82b366;" parent="1" vertex="1">
          <mxGeometry x="320" y="597" width="90" height="40" as="geometry" />
        </mxCell>
        <mxCell id="dU5oYRAke7bi80Ur_Mct-45" value="PC已覆盖" style="text;html=1;align=center;verticalAlign=middle;whiteSpace=wrap;rounded=0;" parent="1" vertex="1">
          <mxGeometry x="330" y="647" width="70" height="30" as="geometry" />
        </mxCell>
        <mxCell id="dU5oYRAke7bi80Ur_Mct-46" value="PC未来覆盖" style="text;html=1;align=center;verticalAlign=middle;whiteSpace=wrap;rounded=0;" parent="1" vertex="1">
          <mxGeometry x="470" y="647" width="70" height="30" as="geometry" />
        </mxCell>
        <mxCell id="dU5oYRAke7bi80Ur_Mct-47" value="PC只做异构" style="text;html=1;align=center;verticalAlign=middle;whiteSpace=wrap;rounded=0;" parent="1" vertex="1">
          <mxGeometry x="616" y="647" width="70" height="30" as="geometry" />
        </mxCell>
        <mxCell id="dU5oYRAke7bi80Ur_Mct-49" value="" style="rounded=0;whiteSpace=wrap;html=1;dashed=1;fillColor=none;" parent="1" vertex="1">
          <mxGeometry x="340" y="170" width="250" height="290" as="geometry" />
        </mxCell>
        <mxCell id="dU5oYRAke7bi80Ur_Mct-51" value="商品基础数据" style="text;html=1;align=center;verticalAlign=middle;whiteSpace=wrap;rounded=0;" parent="1" vertex="1">
          <mxGeometry x="425" y="170" width="80" height="40" as="geometry" />
        </mxCell>
        <mxCell id="dU5oYRAke7bi80Ur_Mct-18" value="SPU" style="rounded=0;whiteSpace=wrap;html=1;fillColor=#d5e8d4;strokeColor=#82b366;" parent="1" vertex="1">
          <mxGeometry x="360" y="210" width="90" height="40" as="geometry" />
        </mxCell>
        <mxCell id="dU5oYRAke7bi80Ur_Mct-19" value="SKU" style="rounded=0;whiteSpace=wrap;html=1;fillColor=#d5e8d4;strokeColor=#82b366;" parent="1" vertex="1">
          <mxGeometry x="480" y="210" width="90" height="40" as="geometry" />
        </mxCell>
        <mxCell id="dU5oYRAke7bi80Ur_Mct-20" value="poskey" style="rounded=0;whiteSpace=wrap;html=1;fillColor=#C9C9C9;strokeColor=#330000;fontColor=#330000;" parent="1" vertex="1">
          <mxGeometry x="360" y="270" width="90" height="40" as="geometry" />
        </mxCell>
        <mxCell id="dU5oYRAke7bi80Ur_Mct-21" value="规格" style="rounded=0;whiteSpace=wrap;html=1;fillColor=#d5e8d4;strokeColor=#82b366;" parent="1" vertex="1">
          <mxGeometry x="480" y="270" width="90" height="40" as="geometry" />
        </mxCell>
        <mxCell id="dU5oYRAke7bi80Ur_Mct-22" value="配料" style="rounded=0;whiteSpace=wrap;html=1;fillColor=#d5e8d4;strokeColor=#82b366;" parent="1" vertex="1">
          <mxGeometry x="360" y="330" width="90" height="40" as="geometry" />
        </mxCell>
        <mxCell id="dU5oYRAke7bi80Ur_Mct-24" value="商品分类" style="rounded=0;whiteSpace=wrap;html=1;fillColor=#d5e8d4;strokeColor=#82b366;" parent="1" vertex="1">
          <mxGeometry x="480" y="330" width="90" height="40" as="geometry" />
        </mxCell>
        <mxCell id="dU5oYRAke7bi80Ur_Mct-32" value="Combo" style="rounded=0;whiteSpace=wrap;html=1;fillColor=#C9C9C9;strokeColor=#330000;fontColor=#330000;" parent="1" vertex="1">
          <mxGeometry x="360" y="390" width="90" height="40" as="geometry" />
        </mxCell>
        <mxCell id="dU5oYRAke7bi80Ur_Mct-35" value="咖啡豆" style="rounded=0;whiteSpace=wrap;html=1;fillColor=#d5e8d4;strokeColor=#82b366;" parent="1" vertex="1">
          <mxGeometry x="480" y="390" width="90" height="40" as="geometry" />
        </mxCell>
        <mxCell id="dU5oYRAke7bi80Ur_Mct-53" value="" style="rounded=0;whiteSpace=wrap;html=1;dashed=1;fillColor=none;" parent="1" vertex="1">
          <mxGeometry x="630" y="170" width="240" height="290" as="geometry" />
        </mxCell>
        <mxCell id="dU5oYRAke7bi80Ur_Mct-54" value="商品销售属性" style="text;html=1;align=center;verticalAlign=middle;whiteSpace=wrap;rounded=0;" parent="1" vertex="1">
          <mxGeometry x="715" y="170" width="80" height="40" as="geometry" />
        </mxCell>
        <mxCell id="dU5oYRAke7bi80Ur_Mct-33" value="商品价格" style="rounded=0;whiteSpace=wrap;html=1;fillColor=#C9C9C9;strokeColor=#330000;fontColor=#330000;" parent="1" vertex="1">
          <mxGeometry x="647" y="210" width="90" height="40" as="geometry" />
        </mxCell>
        <mxCell id="dU5oYRAke7bi80Ur_Mct-55" value="售卖时间" style="rounded=0;whiteSpace=wrap;html=1;fillColor=#d5e8d4;strokeColor=#82b366;" parent="1" vertex="1">
          <mxGeometry x="760" y="210" width="90" height="40" as="geometry" />
        </mxCell>
        <mxCell id="dU5oYRAke7bi80Ur_Mct-56" value="" style="rounded=0;whiteSpace=wrap;html=1;dashed=1;fillColor=none;" parent="1" vertex="1">
          <mxGeometry x="902.5" y="325" width="237.5" height="135" as="geometry" />
        </mxCell>
        <mxCell id="dU5oYRAke7bi80Ur_Mct-57" value="商品配方属性" style="text;html=1;align=center;verticalAlign=middle;whiteSpace=wrap;rounded=0;" parent="1" vertex="1">
          <mxGeometry x="987.5" y="320" width="80" height="40" as="geometry" />
        </mxCell>
        <mxCell id="dU5oYRAke7bi80Ur_Mct-58" value="" style="rounded=0;whiteSpace=wrap;html=1;dashed=1;fillColor=none;" parent="1" vertex="1">
          <mxGeometry x="902.5" y="170" width="237.5" height="140" as="geometry" />
        </mxCell>
        <mxCell id="dU5oYRAke7bi80Ur_Mct-59" value="商品展示属性" style="text;html=1;align=center;verticalAlign=middle;whiteSpace=wrap;rounded=0;" parent="1" vertex="1">
          <mxGeometry x="987.5" y="170" width="80" height="40" as="geometry" />
        </mxCell>
        <mxCell id="dU5oYRAke7bi80Ur_Mct-60" value="单点不送" style="rounded=0;whiteSpace=wrap;html=1;fillColor=#d5e8d4;strokeColor=#82b366;" parent="1" vertex="1">
          <mxGeometry x="647" y="270" width="90" height="40" as="geometry" />
        </mxCell>
        <mxCell id="dU5oYRAke7bi80Ur_Mct-61" value="是否限制库存" style="rounded=0;whiteSpace=wrap;html=1;fillColor=#d5e8d4;strokeColor=#82b366;" parent="1" vertex="1">
          <mxGeometry x="760" y="270" width="90" height="40" as="geometry" />
        </mxCell>
        <mxCell id="dU5oYRAke7bi80Ur_Mct-62" value="是否赠品" style="rounded=0;whiteSpace=wrap;html=1;fillColor=#d5e8d4;strokeColor=#82b366;" parent="1" vertex="1">
          <mxGeometry x="647" y="330" width="90" height="40" as="geometry" />
        </mxCell>
        <mxCell id="dU5oYRAke7bi80Ur_Mct-63" value="GWP商品" style="rounded=0;whiteSpace=wrap;html=1;fillColor=#d5e8d4;strokeColor=#82b366;" parent="1" vertex="1">
          <mxGeometry x="760" y="330" width="90" height="40" as="geometry" />
        </mxCell>
        <mxCell id="dU5oYRAke7bi80Ur_Mct-64" value="库存" style="rounded=0;whiteSpace=wrap;html=1;fillColor=#d5e8d4;strokeColor=#330000;dashed=1;dashPattern=8 8;" parent="1" vertex="1">
          <mxGeometry x="760" y="390" width="90" height="40" as="geometry" />
        </mxCell>
        <mxCell id="dU5oYRAke7bi80Ur_Mct-65" value="商品文案信息" style="rounded=0;whiteSpace=wrap;html=1;fillColor=#d5e8d4;strokeColor=#82b366;" parent="1" vertex="1">
          <mxGeometry x="918.5" y="210" width="90" height="40" as="geometry" />
        </mxCell>
        <mxCell id="dU5oYRAke7bi80Ur_Mct-66" value="商品图片&amp;amp;素材" style="rounded=0;whiteSpace=wrap;html=1;fillColor=#d5e8d4;strokeColor=#82b366;" parent="1" vertex="1">
          <mxGeometry x="1032.5" y="210" width="90" height="40" as="geometry" />
        </mxCell>
        <mxCell id="dU5oYRAke7bi80Ur_Mct-67" value="商品标签信息" style="rounded=0;whiteSpace=wrap;html=1;fillColor=#d5e8d4;strokeColor=#82b366;" parent="1" vertex="1">
          <mxGeometry x="918.5" y="260" width="90" height="40" as="geometry" />
        </mxCell>
        <mxCell id="dU5oYRAke7bi80Ur_Mct-69" value="推荐信息" style="rounded=0;whiteSpace=wrap;html=1;fillColor=#d5e8d4;strokeColor=#82b366;" parent="1" vertex="1">
          <mxGeometry x="1032.5" y="260" width="90" height="40" as="geometry" />
        </mxCell>
        <mxCell id="dU5oYRAke7bi80Ur_Mct-25" value="Bom（扣料）" style="rounded=0;whiteSpace=wrap;html=1;fillColor=#C9C9C9;strokeColor=#36393d;dashed=1;dashPattern=12 12;" parent="1" vertex="1">
          <mxGeometry x="918.5" y="356" width="90" height="40" as="geometry" />
        </mxCell>
        <mxCell id="dU5oYRAke7bi80Ur_Mct-26" value="营养值信息" style="rounded=0;whiteSpace=wrap;html=1;fillColor=#C9C9C9;strokeColor=#330000;fontColor=#330000;dashed=1;dashPattern=12 12;" parent="1" vertex="1">
          <mxGeometry x="1032.5" y="357" width="90" height="40" as="geometry" />
        </mxCell>
        <mxCell id="dU5oYRAke7bi80Ur_Mct-27" value="制作配方" style="rounded=0;whiteSpace=wrap;html=1;fillColor=#C9C9C9;strokeColor=#330000;fontColor=#330000;dashed=1;dashPattern=8 8;" parent="1" vertex="1">
          <mxGeometry x="918.5" y="407" width="90" height="40" as="geometry" />
        </mxCell>
        <mxCell id="dU5oYRAke7bi80Ur_Mct-70" value="" style="rounded=0;whiteSpace=wrap;html=1;dashed=1;fillColor=none;" parent="1" vertex="1">
          <mxGeometry x="1180" y="170" width="350" height="290" as="geometry" />
        </mxCell>
        <mxCell id="dU5oYRAke7bi80Ur_Mct-71" value="菜单数据" style="text;html=1;align=center;verticalAlign=middle;whiteSpace=wrap;rounded=0;" parent="1" vertex="1">
          <mxGeometry x="1315" y="170" width="80" height="40" as="geometry" />
        </mxCell>
        <mxCell id="dU5oYRAke7bi80Ur_Mct-74" value="隔日菜单" style="rounded=0;whiteSpace=wrap;html=1;fillColor=#d5e8d4;strokeColor=#82b366;" parent="1" vertex="1">
          <mxGeometry x="1422" y="210" width="90" height="40" as="geometry" />
        </mxCell>
        <mxCell id="dU5oYRAke7bi80Ur_Mct-75" value="门店特供" style="rounded=0;whiteSpace=wrap;html=1;fillColor=#d5e8d4;strokeColor=#82b366;" parent="1" vertex="1">
          <mxGeometry x="1197" y="270" width="90" height="40" as="geometry" />
        </mxCell>
        <mxCell id="dU5oYRAke7bi80Ur_Mct-76" value="每周推荐" style="rounded=0;whiteSpace=wrap;html=1;fillColor=#d5e8d4;strokeColor=#82b366;" parent="1" vertex="1">
          <mxGeometry x="1310" y="270" width="90" height="40" as="geometry" />
        </mxCell>
        <mxCell id="dU5oYRAke7bi80Ur_Mct-77" value="随单购(SRKit)" style="rounded=0;whiteSpace=wrap;html=1;fillColor=#d5e8d4;strokeColor=#82b366;" parent="1" vertex="1">
          <mxGeometry x="1422" y="270" width="90" height="40" as="geometry" />
        </mxCell>
        <mxCell id="dU5oYRAke7bi80Ur_Mct-78" value="星级套餐（combo2.0）" style="rounded=0;whiteSpace=wrap;html=1;fillColor=#d5e8d4;strokeColor=#330000;dashed=1;dashPattern=8 8;" parent="1" vertex="1">
          <mxGeometry x="1197" y="330" width="90" height="40" as="geometry" />
        </mxCell>
        <mxCell id="dU5oYRAke7bi80Ur_Mct-79" value="主菜单" style="rounded=0;whiteSpace=wrap;html=1;fillColor=#d5e8d4;strokeColor=#82b366;" parent="1" vertex="1">
          <mxGeometry x="1197" y="210" width="90" height="40" as="geometry" />
        </mxCell>
        <mxCell id="dU5oYRAke7bi80Ur_Mct-80" value="运营菜单" style="rounded=0;whiteSpace=wrap;html=1;fillColor=#d5e8d4;strokeColor=#82b366;" parent="1" vertex="1">
          <mxGeometry x="1310" y="210" width="90" height="40" as="geometry" />
        </mxCell>
        <mxCell id="dU5oYRAke7bi80Ur_Mct-81" value="我的星咖号" style="rounded=0;whiteSpace=wrap;html=1;fillColor=#d5e8d4;strokeColor=#330000;dashed=1;dashPattern=8 8;" parent="1" vertex="1">
          <mxGeometry x="1197" y="390" width="90" height="40" as="geometry" />
        </mxCell>
        <mxCell id="dU5oYRAke7bi80Ur_Mct-82" value="" style="rounded=0;whiteSpace=wrap;html=1;fillColor=none;strokeColor=#330000;fontColor=#330000;dashed=1;dashPattern=8 8;" parent="1" vertex="1">
          <mxGeometry x="606" y="597" width="90" height="40" as="geometry" />
        </mxCell>
        <mxCell id="dU5oYRAke7bi80Ur_Mct-83" value="" style="rounded=0;whiteSpace=wrap;html=1;fillColor=#C9C9C9;strokeColor=#330000;fontColor=#330000;" parent="1" vertex="1">
          <mxGeometry x="460" y="597" width="90" height="40" as="geometry" />
        </mxCell>
        <mxCell id="dU5oYRAke7bi80Ur_Mct-86" value="咖啡搭子（combo1.5）" style="rounded=0;whiteSpace=wrap;html=1;fillColor=#d5e8d4;strokeColor=#330000;dashed=1;dashPattern=8 8;" parent="1" vertex="1">
          <mxGeometry x="1310" y="330" width="90" height="40" as="geometry" />
        </mxCell>
        <mxCell id="dU5oYRAke7bi80Ur_Mct-87" value="特价菜" style="rounded=0;whiteSpace=wrap;html=1;fillColor=#d5e8d4;strokeColor=#330000;dashed=1;dashPattern=8 8;" parent="1" vertex="1">
          <mxGeometry x="1422" y="330" width="90" height="40" as="geometry" />
        </mxCell>
        <mxCell id="dU5oYRAke7bi80Ur_Mct-89" value="菜单运营规则" style="rounded=0;whiteSpace=wrap;html=1;fillColor=#d5e8d4;strokeColor=#82b366;" parent="1" vertex="1">
          <mxGeometry x="1310" y="390" width="90" height="40" as="geometry" />
        </mxCell>
        <mxCell id="dU5oYRAke7bi80Ur_Mct-90" value="菜单命名&amp;amp;排序" style="rounded=0;whiteSpace=wrap;html=1;fillColor=#d5e8d4;strokeColor=#82b366;" parent="1" vertex="1">
          <mxGeometry x="1422" y="390" width="90" height="40" as="geometry" />
        </mxCell>
        <mxCell id="kRfiSciBcvB_tHVXzIQT-1" value="上下架状态" style="rounded=0;whiteSpace=wrap;html=1;fillColor=#d5e8d4;strokeColor=#82b366;" vertex="1" parent="1">
          <mxGeometry x="647" y="390" width="90" height="40" as="geometry" />
        </mxCell>
      </root>
    </mxGraphModel>
  </diagram>
</mxfile>
